<?xml version="1.0" encoding="UTF-8" standalone="no"?>
<svg width="60px" height="60px" viewBox="0 0 60 60" version="1.1" xmlns="http://www.w3.org/2000/svg" xmlns:xlink="http://www.w3.org/1999/xlink" xmlns:sketch="http://www.bohemiancoding.com/sketch/ns">
    <!-- Generator: Sketch 3.2.2 (9983) - http://www.bohemiancoding.com/sketch -->
    <title>Optimnetwork</title>
    <desc>Created with Sketch.</desc>
    <defs></defs>
    <g id="stroked" stroke="none" stroke-width="1" fill="none" fill-rule="evenodd" sketch:type="MSPage">
        <g id="Tech" sketch:type="MSLayerGroup" transform="translate(-838.000000, -1929.000000)" stroke="#535353" stroke-width="2" stroke-linejoin="round">
            <g id="Optimnetwork" transform="translate(839.000000, 1934.000000)" sketch:type="MSShapeGroup">
                <rect id="Rectangle-664" stroke-linecap="round" x="22" y="0" width="14" height="8"></rect>
                <rect id="Rectangle-664" stroke-linecap="round" x="22" y="36" width="14" height="8"></rect>
                <rect id="Rectangle-664" stroke-linecap="round" x="0" y="36" width="14" height="8"></rect>
                <rect id="Rectangle-664" stroke-linecap="round" x="44" y="36" width="14" height="8"></rect>
                <rect id="Rectangle-664" stroke-linecap="round" x="11" y="18" width="14" height="8"></rect>
                <rect id="Rectangle-665" stroke-linecap="round" x="33" y="18" width="14" height="8"></rect>
                <path d="M18,19 L18,4 L23,4" id="Rectangle-670" stroke-linecap="round"></path>
                <path d="M35,19 L35,4 L40,4" id="Rectangle-670" stroke-linecap="round" transform="translate(37.500000, 11.500000) scale(-1, 1) translate(-37.500000, -11.500000) "></path>
                <path d="M7,37 L7,22 L12,22" id="Rectangle-670" stroke-linecap="round"></path>
                <path d="M46,37 L46,22 L51,22" id="Rectangle-670" stroke-linecap="round" transform="translate(48.500000, 29.500000) scale(-1, 1) translate(-48.500000, -29.500000) "></path>
                <path d="M25,22 L33,22" id="Line" stroke-linecap="square"></path>
                <path d="M29,22 L29,36" id="Line" stroke-linecap="square"></path>
            </g>
        </g>
    </g>
</svg>