<?xml version="1.0" encoding="UTF-8" standalone="no"?>
<!-- Created with Inkscape (http://www.inkscape.org/) -->

<svg
   xmlns:dc="http://purl.org/dc/elements/1.1/"
   xmlns:cc="http://creativecommons.org/ns#"
   xmlns:rdf="http://www.w3.org/1999/02/22-rdf-syntax-ns#"
   xmlns:svg="http://www.w3.org/2000/svg"
   xmlns="http://www.w3.org/2000/svg"
   xmlns:sodipodi="http://sodipodi.sourceforge.net/DTD/sodipodi-0.dtd"
   xmlns:inkscape="http://www.inkscape.org/namespaces/inkscape"
   width="90.169998mm"
   height="90.169998mm"
   viewBox="0 0 90.169998 90.169998"
   version="1.1"
   id="svg8"
   inkscape:version="0.92.4 (5da689c313, 2019-01-14)"
   sodipodi:docname="icon.svg">
  <defs
     id="defs2" />
  <sodipodi:namedview
     id="base"
     pagecolor="#ffffff"
     bordercolor="#666666"
     borderopacity="1.0"
     inkscape:pageopacity="0.0"
     inkscape:pageshadow="2"
     inkscape:zoom="1.979899"
     inkscape:cx="367.41005"
     inkscape:cy="128.21266"
     inkscape:document-units="mm"
     inkscape:current-layer="layer1"
     showgrid="false"
     inkscape:window-width="3840"
     inkscape:window-height="2066"
     inkscape:window-x="2869"
     inkscape:window-y="-11"
     inkscape:window-maximized="1"
     showguides="false" />
  <metadata
     id="metadata5">
    <rdf:RDF>
      <cc:Work
         rdf:about="">
        <dc:format>image/svg+xml</dc:format>
        <dc:type
           rdf:resource="http://purl.org/dc/dcmitype/StillImage" />
        <dc:title />
      </cc:Work>
    </rdf:RDF>
  </metadata>
  <g
     inkscape:label="Layer 1"
     inkscape:groupmode="layer"
     id="layer1"
     transform="translate(0,-206.83)">
    <g
       id="g51"
       transform="translate(-109.79786,4.5115624)"
       style="fill:#338000">
      <path
         id="path16"
         d="m 154.86798,202.35455 c -12.12536,0 -23.26404,4.62057 -31.85749,13.21263 -8.59207,8.59207 -13.21263,19.73213 -13.21263,31.85749 0,12.12536 4.62056,23.26404 13.21263,31.85611 7.21541,7.21541 16.23329,11.63064 26.43904,12.94392 4.00734,0.51676 10.15063,0.25493 14.53004,-0.61736 15.76613,-3.14193 29.23646,-15.35411 33.95762,-30.78538 4.95266,-16.19057 0.70417,-33.33888 -11.21172,-45.25478 -8.59345,-8.59206 -19.73213,-13.21263 -31.85749,-13.21263 z m -0.41066,3.53467 c 6.52226,-0.0592 13.04038,1.418 18.9811,4.39457 8.14145,4.07899 14.49145,10.42761 18.57044,18.57044 5.86356,11.70368 5.86356,25.43721 0,37.14089 -2.04638,4.08313 -4.0845,6.95495 -7.33116,10.32701 -6.86952,7.13549 -15.96457,11.48595 -26.08075,12.47401 -7.54476,0.73725 -15.33067,-0.74001 -22.29941,-4.23196 -4.08451,-2.04501 -6.95496,-4.08312 -10.32702,-7.32978 -13.00731,-12.52086 -16.35732,-32.18409 -8.24343,-48.38017 4.87826,-9.73584 13.25673,-17.10145 23.51898,-20.67333 4.28432,-1.49104 8.74916,-2.25034 13.21125,-2.29168 z m 0,0"
         style="fill:#338000;fill-opacity:1;fill-rule:nonzero;stroke:none;stroke-width:0.35277778"
         inkscape:connector-curvature="0" />
      <path
         id="path18"
         d="m 132.88413,244.65895 c -2.03811,0 -3.68625,-1.65089 -3.68625,-3.68625 0,-8.13456 6.61459,-14.75052 14.74915,-14.75052 1.64813,0 3.27008,0.27009 4.81486,0.80477 1.92512,0.66697 2.95038,2.76572 2.28341,4.68947 -0.6711,1.92511 -2.77261,2.94348 -4.69084,2.2834 -0.77032,-0.26596 -1.57786,-0.40238 -2.40743,-0.40238 -4.06797,0 -7.37526,3.30729 -7.37526,7.37526 0,2.03536 -1.64814,3.68625 -3.68764,3.68625 z m 0,0"
         style="fill:#338000;fill-opacity:1;fill-rule:nonzero;stroke:none;stroke-width:0.35277778"
         inkscape:connector-curvature="0" />
      <path
         id="path20"
         d="m 155.01267,244.65895 c -0.19154,0 -0.38723,-0.0138 -0.58291,-0.0441 -2.00918,-0.32108 -3.3817,-2.20899 -3.06062,-4.22231 1.34634,-8.47631 7.25262,-14.17036 14.70229,-14.17036 8.13318,0 14.74914,6.61596 14.74914,14.75052 0,2.03536 -1.64813,3.68625 -3.68763,3.68625 -2.0395,0 -3.68763,-1.65089 -3.68763,-3.68625 0,-4.06797 -3.30729,-7.37526 -7.37388,-7.37526 -4.53926,0 -6.81164,4.10793 -7.42349,7.95404 -0.28801,1.81349 -1.85484,3.10747 -3.63527,3.10747 z m 0,0"
         style="fill:#338000;fill-opacity:1;fill-rule:nonzero;stroke:none;stroke-width:0.35277778"
         inkscape:connector-curvature="0" />
      <path
         id="path22"
         d="m 155.00854,274.15861 c -0.79926,0 -1.60404,-0.26182 -2.26687,-0.78272 -2.41157,-1.87964 -23.54379,-18.7675 -23.54379,-32.40319 0,-2.03674 1.64814,-3.68763 3.68625,-3.68763 2.0395,0 3.68764,1.65089 3.68764,3.68763 0,6.91362 10.51305,18.08261 18.43677,24.74819 7.92372,-6.67384 18.43677,-17.84973 18.43677,-24.74819 0,-2.03674 1.64813,-3.68763 3.68763,-3.68763 2.0395,0 3.68763,1.65089 3.68763,3.68763 0,13.63569 -21.13222,30.52355 -23.54378,32.40319 -0.66422,0.5209 -1.46761,0.78272 -2.26825,0.78272 z m 0,0"
         style="fill:#338000;fill-opacity:1;fill-rule:nonzero;stroke:none;stroke-width:0.35277778"
         inkscape:connector-curvature="0" />
    </g>
  </g>
</svg>
