<?xml version="1.0" encoding="iso-8859-1"?>
<!DOCTYPE svg PUBLIC "-//W3C//DTD SVG 1.1//EN" "http://www.w3.org/Graphics/SVG/1.1/DTD/svg11.dtd">
<svg 
 version="1.1" xmlns="http://www.w3.org/2000/svg" xmlns:xlink="http://www.w3.org/1999/xlink" x="0px" y="0px" width="512px"
	 height="512px" viewBox="0 0 512 512" style="enable-background:new 0 0 512 512;" xml:space="preserve"
><g id="7935ec95c421cee6d86eb22ecd150e21"><g></g><g fill="#78909c"><path style="display: inline; fill-rule: evenodd; clip-rule: evenodd;" d="M472.073,95.131H270.197l-31.23-41.639
		c-6.246-8.33-19.869-15.142-30.282-15.142h-75.702c-10.413,0-18.93,8.517-18.93,18.926v37.854v321.737
		c0,10.413-8.517,18.93-18.921,18.93c-10.413,0-18.93-8.517-18.93-18.93V95.131H38.351c-21.687,0-37.851,17.034-37.851,37.852
		l37.851,302.815c0,20.817,17.744,37.852,39.431,37.852h369.843c21.683,0,39.427-17.034,39.427-37.852L511.5,132.982
		C511.5,112.165,493.76,95.131,472.073,95.131z M424.974,409.774H192.125v-34.724c0.902-4.093,2.242-7.984,4.034-11.678
		c1.497-3.227,3.56-6.309,6.151-9.356c2.599-3.061,5.934-5.323,10.026-6.828c2.096-0.69,67.438-28.395,70.528-29.783v-10.048
		c-0.191-0.781-0.52-2.013-0.965-3.663c-0.458-1.651-0.919-3.314-1.431-5.02c-0.582-1.979-1.298-4.134-2.096-6.434
		c-2.891-5.394-5.19-11.498-6.883-18.335c-1.696-6.845-2.558-14.109-2.558-21.79c0-10.093,1.082-18.631,3.224-25.608
		c2.158-6.995,5.073-12.684,8.774-17.067c3.688-4.396,7.997-7.598,12.953-9.589c4.937-2.005,10.247-2.994,15.94-2.994
		c5.593,0,10.854,0.956,15.789,2.919c4.949,1.955,9.286,5.09,13.029,9.428c3.751,4.346,6.691,10.034,8.845,17.083
		c2.154,7.024,3.215,15.653,3.215,25.829c0,7.493-0.823,14.592-2.466,21.333c-1.651,6.749-3.93,12.804-6.812,18.214
		c-0.799,2.471-1.556,4.824-2.246,7.012c-0.599,1.913-1.151,3.734-1.65,5.456c-0.508,1.771-0.749,3.048-0.749,3.838v10.476
		c3.194,1.389,45.432,19.687,49.416,21.354c3.983,1.63,26.157,11.157,28.756,14.218c2.591,3.048,4.629,6.13,6.134,9.356
		c1.797,3.693,3.09,7.585,3.889,11.678V409.774z"></path></g></g></svg>