<?xml version="1.0" encoding="iso-8859-1"?>
<!DOCTYPE svg PUBLIC "-//W3C//DTD SVG 1.1//EN" "http://www.w3.org/Graphics/SVG/1.1/DTD/svg11.dtd">
<svg 
 version="1.1" xmlns="http://www.w3.org/2000/svg" xmlns:xlink="http://www.w3.org/1999/xlink" x="0px" y="0px" width="512px"
	 height="512px" viewBox="0 0 512 512" enable-background="new 0 0 512 512" xml:space="preserve"
><g id="1b1c9b208ed950244c86edd4d203bfc7"><g></g><g fill="#467fd7"><path display="inline" d="M501.065,109.87l-28.941-28.941l-69.534-69.53c-7.957-7.958-23.042-12.603-33.515-10.315l-79.283,22.233
		c-3.119,0.677-59.349,55.761-74.703,71.145l-0.013,0.008l-40.599,40.576L12.125,297.401c-14.884,14.881-14.884,39.235,0,54.116
		l94.706,94.706l54.117,54.112c14.884,14.885,39.236,14.885,54.117,0l162.35-162.347l42.507-42.531l0.008-0.012
		c15.384-15.355,70.469-71.585,69.223-72.772l20.299-77.359C513.663,132.916,509.022,117.831,501.065,109.87z M384.181,209.457
		c-22.416,22.416-58.76,22.416-81.176,0c-22.418-22.411-22.418-58.758,0-81.173c22.416-22.419,58.76-22.419,81.176,0
		C406.596,150.699,406.596,187.045,384.181,209.457z"></path></g></g></svg>