<?xml version="1.0" encoding="iso-8859-1"?>
<!DOCTYPE svg PUBLIC "-//W3C//DTD SVG 1.1//EN" "http://www.w3.org/Graphics/SVG/1.1/DTD/svg11.dtd">
<svg 
 version="1.1" xmlns="http://www.w3.org/2000/svg" xmlns:xlink="http://www.w3.org/1999/xlink" x="0px" y="0px" width="512px"
	 height="512px" viewBox="0 0 512 512" enable-background="new 0 0 512 512" xml:space="preserve"
><g id="5151e0c8492e5103c096af88a5280e80"><g></g><g fill="#467fd7"><path display="inline" d="M298.583,256c0,23.513-19.066,42.583-42.583,42.583s-42.583-19.07-42.583-42.583
		c0-23.521,19.067-42.583,42.583-42.583S298.583,232.479,298.583,256z M511.5,256c0,141.107-114.389,255.5-255.5,255.5
		S0.5,397.107,0.5,256S114.889,0.5,256,0.5S511.5,114.893,511.5,256z M477.434,256c0-122.099-99.335-221.434-221.434-221.434
		S34.567,133.901,34.567,256S133.901,477.434,256,477.434S477.434,378.099,477.434,256z"></path></g></g></svg>