<?xml version="1.0" encoding="iso-8859-1"?>
<!DOCTYPE svg PUBLIC "-//W3C//DTD SVG 1.1//EN" "http://www.w3.org/Graphics/SVG/1.1/DTD/svg11.dtd">
<svg 
 version="1.1" xmlns="http://www.w3.org/2000/svg" xmlns:xlink="http://www.w3.org/1999/xlink" x="0px" y="0px" width="512px"
	 height="512px" viewBox="0 0 512 512" style="enable-background:new 0 0 512 512;" xml:space="preserve"
><g id="afcae5a789ccd549f9c6e2a2f8119987"><g></g><g fill="#78909c"><path style="display: inline; fill-rule: evenodd; clip-rule: evenodd;" d="M153.8,204.9c0,21.168-14.297,38.324-31.927,38.324
		c-17.646,0-31.942-17.156-31.942-38.324c0-21.169,14.297-38.325,31.942-38.325C139.503,166.575,153.8,183.731,153.8,204.9z
		 M255.995,166.575c-17.646,0-31.942,17.156-31.942,38.325c0,21.168,14.297,38.324,31.942,38.324s31.942-17.156,31.942-38.324
		C287.938,183.731,273.641,166.575,255.995,166.575z M390.128,166.575c-17.631,0-31.928,17.156-31.928,38.325
		c0,21.168,14.297,38.324,31.928,38.324c17.646,0,31.942-17.156,31.942-38.324C422.07,183.731,407.773,166.575,390.128,166.575z
		 M511.5,64.375v281.05c0,28.105-22.995,51.101-51.1,51.101H358.2c-37.497,45.221-94.415,102.289-149.887,102.199
		c28.793-21.607,36.688-65.512,47.687-102.199H51.6c-28.105,0-51.1-22.995-51.1-51.101V64.375c0-28.105,22.995-51.1,51.1-51.1h408.8
		C488.505,13.275,511.5,36.27,511.5,64.375z M460.4,89.925c0-14.052-11.498-25.55-25.551-25.55H77.15
		c-14.052,0-25.55,11.498-25.55,25.55v229.95c0,14.053,11.498,25.55,25.55,25.55h357.7c14.053,0,25.551-11.497,25.551-25.55V89.925z
		"></path></g></g></svg>