<?xml version="1.0" encoding="iso-8859-1"?>
<!DOCTYPE svg PUBLIC "-//W3C//DTD SVG 1.1//EN" "http://www.w3.org/Graphics/SVG/1.1/DTD/svg11.dtd">
<svg 
 version="1.1" xmlns="http://www.w3.org/2000/svg" xmlns:xlink="http://www.w3.org/1999/xlink" x="0px" y="0px" width="512px"
	 height="512px" viewBox="0 0 512 512" style="enable-background:new 0 0 512 512;" xml:space="preserve"
><g id="afcae5a789ccd549f9c6e2a2f817d64b"><g></g><g fill="#78909c"><path style="display: inline;" d="M341.455,382.894l15.266,34.36c3.896,8.763-2.994,15.935-15.307,15.935h-6.293
		c-8.088,32.288-29.434,61.098-61.268,77.542c-3.365,1.744-7.516,0.423-9.25-2.95c-1.742-3.372-0.42-7.516,2.945-9.265
		c27.086-13.986,45.594-38.094,53.352-65.327h-9.348c-12.314,0-19.203-7.172-15.301-15.935l15.26-34.36
		c-21.152-8.429-47.239-32.34-70.188-62.172c50.109-41.89,102.779-125.967,102.779-185.661c0-28.358-8.148-54.917-22.281-77.672
		c1.549-0.048,3.098-0.11,4.66-0.11c77.855,0,140.967,60.245,140.967,134.562C467.449,258.901,390.924,363.184,341.455,382.894z
		 M215.753,360.476c3.896,8.762-2.994,15.935-15.308,15.935h-6.292c-8.087,32.288-29.432,61.098-61.266,77.541
		c-3.366,1.745-7.517,0.424-9.251-2.949c-1.742-3.369-0.42-7.517,2.946-9.265c27.085-13.986,45.594-38.095,53.351-65.327h-9.347
		c-12.314,0-19.204-7.173-15.301-15.935l15.26-34.36C121.083,306.405,44.55,202.123,44.55,135.061
		C44.55,60.744,107.662,0.5,185.516,0.5c77.855,0,140.966,60.244,140.966,134.561c0,67.062-76.527,171.344-125.996,191.054
		L215.753,360.476z M146.592,48.052c-14.379-4.718-35.6,20.594-47.404,56.544c-11.805,35.951-9.719,68.917,4.667,73.643
		c14.379,4.715,9.567-29.146,21.372-65.094C137.025,77.195,160.971,52.773,146.592,48.052z"></path></g></g></svg>